<svg width="36" height="36" viewBox="0 0 36 36" fill="none" xmlns="http://www.w3.org/2000/svg">
<path d="M17.5232 0.982912C7.88464 0.982911 0.0231954 8.81423 0.0231947 18.4829C0.0231939 28.1516 7.88464 35.9829 17.5232 35.9829C27.1617 35.9829 35.0232 28.1215 35.0232 18.4829C35.0232 8.84436 27.1618 0.982913 17.5232 0.982912ZM17.5232 33.513C9.24006 33.513 2.49307 26.766 2.49307 18.4829C2.49307 10.1998 9.24006 3.45279 17.5232 3.45279C25.8063 3.45279 32.5533 10.1998 32.5533 18.4829C32.5533 26.766 25.8063 33.513 17.5232 33.513Z" fill="#6C8EC1" fill-opacity="0.76"/>
<path d="M21.5596 9.74765C21.3186 9.50668 21.0174 9.3862 20.6861 9.3862C20.3849 9.3862 20.0535 9.50668 19.8126 9.74765L11.8608 17.6996C11.6198 17.9406 11.4993 18.2418 11.4993 18.5732C11.4993 18.9045 11.6198 19.2057 11.8608 19.4467L19.8126 27.3987C20.2945 27.8806 21.0776 27.8806 21.5596 27.3987C22.0415 26.9167 22.0415 26.1336 21.5596 25.6516L14.4813 18.5732L21.5596 11.4947C22.0415 11.0127 22.0415 10.2296 21.5596 9.74765Z" fill="#6C8EC1" fill-opacity="0.76"/>
</svg>
