<svg width="36" height="36" viewBox="0 0 36 36" fill="none" xmlns="http://www.w3.org/2000/svg">
<path d="M18 0C8.0744 0 0 8.0744 0 18C0 27.9256 8.0744 36 18 36C27.9256 36 36 27.9256 36 18C36 8.0744 27.9256 0 18 0ZM25.875 19.4999H19.4999V25.875C19.4999 26.7031 18.8281 27.3749 18 27.3749C17.1719 27.3749 16.5001 26.7031 16.5001 25.875V19.4999H10.125C9.29691 19.4999 8.62509 18.8281 8.62509 18C8.62509 17.1719 9.29691 16.5001 10.125 16.5001H16.5001V10.125C16.5001 9.29691 17.1719 8.62509 18 8.62509C18.8281 8.62509 19.4999 9.29691 19.4999 10.125V16.5001H25.875C26.7031 16.5001 27.3749 17.1719 27.3749 18C27.3749 18.8281 26.7031 19.4999 25.875 19.4999Z" fill="#5A80BA"/>
</svg>
