<svg width="35" height="35" viewBox="0 0 35 35" fill="none" xmlns="http://www.w3.org/2000/svg">
<g clip-path="url(#clip0)">
<path d="M0.476639 16.3493L10.8921 5.93388C11.5275 5.29841 12.5581 5.29841 13.1936 5.93388C13.8292 6.56948 13.8292 7.59983 13.1936 8.23543L5.55637 15.8727H33.3726C34.2713 15.8727 35 16.6014 35 17.5001C35 18.3987 34.2713 19.1275 33.3726 19.1275H5.55637L13.1934 26.7647C13.829 27.4003 13.829 28.4307 13.1934 29.0663C12.8757 29.3838 12.4591 29.5429 12.0426 29.5429C11.6261 29.5429 11.2096 29.3838 10.8918 29.0663L0.476639 18.6509C-0.158962 18.0153 -0.158962 16.9849 0.476639 16.3493Z" fill="black"/>
</g>
<defs>
<clipPath id="clip0">
<rect width="35" height="35" transform="matrix(-1 0 0 1 35 0)" fill="white"/>
</clipPath>
</defs>
</svg>
