<svg width="27" height="27" viewBox="0 0 27 27" fill="none" xmlns="http://www.w3.org/2000/svg">
<g clip-path="url(#clip0)">
<rect x="0.62793" y="0.258057" width="26" height="26" fill="#5A80BA"/>
<path d="M4.43652 26.2581H12.917V17.0159H9.87012V13.969H12.917V10.1604C12.917 8.06032 14.6255 6.35181 16.7256 6.35181H20.5342V9.39868H17.4873C16.6472 9.39868 15.9639 10.082 15.9639 10.9221V13.969H20.3967L19.8889 17.0159H15.9639V26.2581H22.8193C24.9194 26.2581 26.6279 24.5495 26.6279 22.4495V4.06665C26.6279 1.96657 24.9194 0.258057 22.8193 0.258057H4.43652C2.33644 0.258057 0.62793 1.96657 0.62793 4.06665V22.4495C0.62793 24.5495 2.33644 26.2581 4.43652 26.2581ZM2.15137 4.06665C2.15137 2.80664 3.17651 1.78149 4.43652 1.78149H22.8193C24.0793 1.78149 25.1045 2.80664 25.1045 4.06665V22.4495C25.1045 23.7095 24.0793 24.7346 22.8193 24.7346H17.4873V18.5393H21.1795L22.1951 12.4456H17.4873V10.9221H22.0576V4.82837H16.7256C13.7854 4.82837 11.3936 7.22025 11.3936 10.1604V12.4456H8.34668V18.5393H11.3936V24.7346H4.43652C3.17651 24.7346 2.15137 23.7095 2.15137 22.4495V4.06665Z" fill="white"/>
</g>
<defs>
<clipPath id="clip0">
<rect x="0.62793" y="0.258057" width="26" height="26" fill="white"/>
</clipPath>
</defs>
</svg>
