<svg width="28" height="28" viewBox="0 0 28 28" fill="none" xmlns="http://www.w3.org/2000/svg">
<g clip-path="url(#clip0)">
<rect width="27" height="27" transform="matrix(-1 -8.74228e-08 -8.74228e-08 1 27.6279 0.258057)" fill="#5A80BA"/>
<path d="M23.6729 0.258054L4.58301 0.258053C2.40216 0.258053 0.627934 2.03228 0.627934 4.21313L0.627932 23.303C0.627932 25.4838 2.40215 27.2581 4.58301 27.2581L23.6729 27.2581C25.8537 27.2581 27.6279 25.4838 27.6279 23.303L27.6279 4.21313C27.6279 2.03228 25.8537 0.258055 23.6729 0.258054ZM26.0459 23.303C26.0459 24.6114 24.9813 25.676 23.6729 25.676L4.58301 25.676C3.27454 25.676 2.20996 24.6114 2.20996 23.303L2.20996 4.21313C2.20996 2.90466 3.27454 1.84008 4.58301 1.84008L23.6729 1.84009C24.9813 1.84009 26.0459 2.90466 26.0459 4.21313L26.0459 23.303Z" fill="white"/>
<path d="M14.1279 6.63891C10.2025 6.63891 7.00879 9.83264 7.00879 13.7581C7.00879 17.6835 10.2025 20.8772 14.1279 20.8772C18.0533 20.8772 21.2471 17.6835 21.2471 13.7581C21.2471 9.83264 18.0533 6.63891 14.1279 6.63891ZM14.1279 19.2952C11.0747 19.2952 8.59082 16.8113 8.59082 13.7581C8.59082 10.7048 11.0747 8.22094 14.1279 8.22094C17.1812 8.22095 19.665 10.7048 19.665 13.7581C19.665 16.8113 17.1812 19.2952 14.1279 19.2952Z" fill="white"/>
<path d="M6.21777 3.47485C4.9093 3.47485 3.84473 4.53943 3.84473 5.8479C3.84473 7.15637 4.9093 8.22095 6.21777 8.22095C7.52625 8.22095 8.59082 7.15637 8.59082 5.8479C8.59082 4.53943 7.52625 3.47485 6.21777 3.47485ZM6.21777 6.63892C5.78169 6.63892 5.42676 6.28399 5.42676 5.8479C5.42676 5.41181 5.78169 5.05688 6.21777 5.05688C6.65386 5.05688 7.00879 5.41181 7.00879 5.8479C7.00879 6.28399 6.65386 6.63892 6.21777 6.63892Z" fill="white"/>
</g>
<defs>
<clipPath id="clip0">
<rect width="27" height="27" transform="matrix(-1 -8.74228e-08 -8.74228e-08 1 27.6279 0.258057)" fill="white"/>
</clipPath>
</defs>
</svg>
