<svg width="25" height="25" viewBox="0 0 25 25" fill="none" xmlns="http://www.w3.org/2000/svg">
<g clip-path="url(#clip0)">
<path d="M24.9588 7.8091C24.5939 3.79252 21.7509 0.878411 18.193 0.878411C15.8227 0.878411 13.6524 2.15396 12.4311 4.19831C11.221 2.12752 9.1396 0.87793 6.80725 0.87793C3.24984 0.87793 0.406404 3.79204 0.0419597 7.80862C0.0131119 7.98603 -0.105164 8.91974 0.254472 10.4424C0.772771 12.6387 1.96996 14.6364 3.71573 16.2182L12.4254 24.1221L21.2845 16.2187C23.0303 14.6364 24.2275 12.6392 24.7458 10.4424C25.1054 8.92022 24.9871 7.98651 24.9588 7.8091ZM23.8097 10.2222C23.3366 12.2281 22.2399 14.0556 20.6412 15.5038L12.4311 22.8287L4.36192 15.5057C2.76039 14.0547 1.66417 12.2276 1.19058 10.2217C0.850179 8.78079 0.990091 7.9668 0.990572 7.96151L0.997784 7.91295C1.3103 4.394 3.75323 1.83952 6.80725 1.83952C9.06075 1.83952 11.0445 3.22422 11.9859 5.45271L12.4287 6.50229L12.8715 5.45271C13.798 3.25836 15.8866 1.84 18.1935 1.84C21.247 1.84 23.6904 4.39448 24.0092 7.95911C24.0102 7.9668 24.1501 8.78127 23.8097 10.2222Z" fill="black"/>
</g>
<defs>
<clipPath id="clip0">
<rect width="25" height="25" fill="white"/>
</clipPath>
</defs>
</svg>
