<svg width="25" height="25" viewBox="0 0 25 25" fill="none" xmlns="http://www.w3.org/2000/svg">
<path d="M21.0938 0H3.90625C1.75234 0 0 1.75234 0 3.90625V5.85938C0 6.39873 0.437207 6.83594 0.976562 6.83594C1.51592 6.83594 1.95312 6.39873 1.95312 5.85938V3.90625C1.95312 2.8293 2.8293 1.95312 3.90625 1.95312H21.0938C22.1707 1.95312 23.0469 2.8293 23.0469 3.90625V21.0938C23.0469 22.1707 22.1707 23.0469 21.0938 23.0469H3.90625C2.8293 23.0469 1.95312 22.1707 1.95312 21.0938V19.1406C1.95312 18.6013 1.51592 18.1641 0.976562 18.1641C0.437207 18.1641 0 18.6013 0 19.1406V21.0938C0 23.2477 1.75234 25 3.90625 25H21.0938C23.2477 25 25 23.2477 25 21.0938V3.90625C25 1.75234 23.2477 0 21.0938 0Z" fill="black"/>
<path d="M16.4023 10.4281L12.7507 6.77985C12.3692 6.39865 11.7509 6.39894 11.3697 6.78049C10.9885 7.16203 10.9888 7.78034 11.3703 8.16154L15.0216 11.8094C15.4024 12.1902 15.4024 12.8097 15.0216 13.1905C15.0202 13.1919 15.0188 13.1934 15.0173 13.1948L11.3658 16.8919C10.9868 17.2756 10.9906 17.8939 11.3743 18.2729C11.5646 18.4609 11.8126 18.5547 12.0605 18.5547C12.3125 18.5547 12.5643 18.4578 12.7553 18.2644L16.405 14.5692C17.545 13.4267 17.5442 11.5699 16.4023 10.4281Z" fill="black"/>
<path d="M11.377 11.5234H0.976562C0.437207 11.5234 0 11.9606 0 12.5C0 13.0394 0.437207 13.4766 0.976562 13.4766H11.377C11.9163 13.4766 12.3535 13.0394 12.3535 12.5C12.3535 11.9606 11.9163 11.5234 11.377 11.5234Z" fill="black"/>
</svg>
