<svg width="35" height="36" viewBox="0 0 35 36" fill="none" xmlns="http://www.w3.org/2000/svg">
<path d="M17.5 35.3035C27.1386 35.3035 35 27.4721 35 17.8035C35 8.13479 27.1386 0.303467 17.5 0.303467C7.86145 0.303467 0 8.16491 0 17.8035C0 27.442 7.86145 35.3035 17.5 35.3035ZM17.5 2.77335C25.7831 2.77335 32.5301 9.52033 32.5301 17.8035C32.5301 26.0866 25.7831 32.8336 17.5 32.8336C9.21687 32.8336 2.46988 26.0866 2.46988 17.8035C2.46988 9.52033 9.21687 2.77335 17.5 2.77335Z" fill="#365689"/>
<path d="M13.4637 26.5384C13.7047 26.7794 14.0059 26.8999 14.3372 26.8999C14.6384 26.8999 14.9698 26.7794 15.2107 26.5384L23.1625 18.5867C23.4035 18.3457 23.524 18.0445 23.524 17.7132C23.524 17.3819 23.4035 17.0807 23.1625 16.8397L15.2107 8.88793C14.7288 8.40601 13.9457 8.40601 13.4637 8.88793C12.9818 9.36986 12.9818 10.153 13.4637 10.6349L20.542 17.7132L13.4637 24.7915C12.9818 25.2734 12.9818 26.0565 13.4637 26.5384Z" fill="#365689"/>
</svg>
